<svg class="diagram-root" style="background: #f5f6f6" xmlns="http://www.w3.org/2000/svg" xmlns:xlink="http://www.w3.org/1999/xlink"><style>.diagram-root { font-family: "Helvetica Neue", sans-serif; font-size: 12px; } .t { overflow: visible; } .t-bg { y: 40; fill: #fff;   } .th { fill: #005aa0;   } .tht { fill: #fff; font-size: 14px;  } .tf { fill: #323c46; overflow: visible; } .tf.pk { fill: #005aa0; font-weight: bold; } .tf.fk { font-weight: bold; } .ty { fill: #adb1b5; font-weight: normal; text-anchor: end; } .r { fill: transparent; stroke: #c3c3c3; stroke-width: 1; } .l { stroke: 1; } .i { fill: #c2c7ce; stroke: #c2c7ce; } .i.ix { fill: #afb3b6; stroke: #000; } .fa { fill: transparent; overflow: visible; } .fa .bg.hover { fill: #f7f7f7; } .c { cy: 12; r: 4; stroke: #d2d2dc; fill: #d2d2dc; } .hr { fill: transparent; stroke: #323c46; stroke-opacity: 0.035; stroke-width: 13; } .dc { stroke: #fa5a3c; fill: #fa5a3c; } .x { stroke: white; stroke-width: 1; } .hl .th { fill: #1b9bff; } .hl .tht {  } .fhl .bg { fill: #e7f4ff; } .fhls .bg {  } .r.hl { stroke: #1b9bff; } .dim { opacity: 0.25; }</style><g class="drawing-wrapper" transform="translate(579.3322222222224, -526.7666666666678) scale(1,1)"><g class="rs"><path d="M -552 962 m -1, 0 a 1,1 0 1,0 2,0 a 1,1 0 1,0 -2,0 M -552 962 m -0.5, 0 a 0.5,0.5 0 1,0 1,0 a 0.5,0.5 0 1,0 -1,0  M-552 962 L-552 962 -564 962 M-558 968 L-558 968 -558 956 M-564 962 C -614 962, -615.554 742.47, -561.41 742.47 M -549.41 742.47 m -1, 0 a 1,1 0 1,0 2,0 a 1,1 0 1,0 -2,0 M -549.41 742.47 m -0.5, 0 a 0.5,0.5 0 1,0 1,0 a 0.5,0.5 0 1,0 -1,0  M-549.41 742.47 L-549.41 742.47 -561.41 742.47 M-555.41 748.47 L-555.41 748.47 -555.41 736.47" id="h221257298" class="r"></path><path d="M -311.39 976.72 m -1, 0 a 1,1 0 1,0 2,0 a 1,1 0 1,0 -2,0 M -311.39 976.72 m -0.5, 0 a 0.5,0.5 0 1,0 1,0 a 0.5,0.5 0 1,0 -1,0  M-311.39 976.72 L-311.39 976.72 -323.39 976.72 M-317.39 982.72 L-317.39 982.72 -317.39 970.72 M-323.39 976.72 Q -341.55 976.72, -359.71 859.6 T -396.03 742.47 M -408.03 742.47 m -1, 0 a 1,1 0 1,0 2,0 a 1,1 0 1,0 -2,0 M -408.03 742.47 m -0.5, 0 a 0.5,0.5 0 1,0 1,0 a 0.5,0.5 0 1,0 -1,0  M-408.03 742.47 L-408.03 742.47 -396.03 742.47 M-402.03 748.47 L-402.03 748.47 -402.03 736.47" id="h1168633520" class="r"></path><path d="M -245.42 641.95 m -1, 0 a 1,1 0 1,0 2,0 a 1,1 0 1,0 -2,0 M -245.42 641.95 m -0.5, 0 a 0.5,0.5 0 1,0 1,0 a 0.5,0.5 0 1,0 -1,0  M-245.42 641.95 L-245.42 641.95 -257.41999999999996 641.95 M-251.42 647.95 L-251.42 647.95 -251.42 635.95 M-257.41999999999996 641.95 Q -292.05 641.95, -326.68 627.86 T -395.94 613.77 M -407.94 613.77 m -1, 0 a 1,1 0 1,0 2,0 a 1,1 0 1,0 -2,0 M -407.94 613.77 m -0.5, 0 a 0.5,0.5 0 1,0 1,0 a 0.5,0.5 0 1,0 -1,0  M-407.94 613.77 L-407.94 613.77 -395.94 613.77 M-401.94 619.77 L-401.94 619.77 -401.94 607.77" id="h3304753978" class="r"></path><path d="M -245.42 666.95 m -1, 0 a 1,1 0 1,0 2,0 a 1,1 0 1,0 -2,0 M -245.42 666.95 m -0.5, 0 a 0.5,0.5 0 1,0 1,0 a 0.5,0.5 0 1,0 -1,0  M-245.42 666.95 L-245.42 666.95 -257.41999999999996 666.95 M-251.42 672.95 L-251.42 672.95 -251.42 660.95 M-257.41999999999996 666.95 Q -292.07 666.95, -326.72 704.71 T -396.03 742.47 M -408.03 742.47 m -1, 0 a 1,1 0 1,0 2,0 a 1,1 0 1,0 -2,0 M -408.03 742.47 m -0.5, 0 a 0.5,0.5 0 1,0 1,0 a 0.5,0.5 0 1,0 -1,0  M-408.03 742.47 L-408.03 742.47 -396.03 742.47 M-402.03 748.47 L-402.03 748.47 -402.03 736.47" id="h3782856632" class="r"></path><path d="M -309.45 812.56 m -1, 0 a 1,1 0 1,0 2,0 a 1,1 0 1,0 -2,0 M -309.45 812.56 m -0.5, 0 a 0.5,0.5 0 1,0 1,0 a 0.5,0.5 0 1,0 -1,0  M-309.45 812.56 L-309.45 812.56 -321.45 812.56 M-315.45 818.56 L-315.45 818.56 -315.45 806.56 M-321.45 812.56 Q -340.07 812.56, -358.69 713.17 T -395.94 613.77 M -407.94 613.77 m -1, 0 a 1,1 0 1,0 2,0 a 1,1 0 1,0 -2,0 M -407.94 613.77 m -0.5, 0 a 0.5,0.5 0 1,0 1,0 a 0.5,0.5 0 1,0 -1,0  M-407.94 613.77 L-407.94 613.77 -395.94 613.77 M-401.94 619.77 L-401.94 619.77 -401.94 607.77" id="h3233325729" class="r"></path><path d="M -309.45 837.56 m -1, 0 a 1,1 0 1,0 2,0 a 1,1 0 1,0 -2,0 M -309.45 837.56 m -0.5, 0 a 0.5,0.5 0 1,0 1,0 a 0.5,0.5 0 1,0 -1,0  M-309.45 837.56 L-309.45 837.56 -321.45 837.56 M-315.45 843.56 L-315.45 843.56 -315.45 831.56 M-321.45 837.56 Q -340.09 837.56, -358.74 790.02 T -396.03 742.47 M -408.03 742.47 m -1, 0 a 1,1 0 1,0 2,0 a 1,1 0 1,0 -2,0 M -408.03 742.47 m -0.5, 0 a 0.5,0.5 0 1,0 1,0 a 0.5,0.5 0 1,0 -1,0  M-408.03 742.47 L-408.03 742.47 -396.03 742.47 M-402.03 748.47 L-402.03 748.47 -402.03 736.47" id="h1736270986" class="r"></path></g><g class="hrs"></g><g class="ts"><svg width="149.39" height="100" x="-557.33" y="556.77" id="h3708248841" class="t"><rect height="40" width="149.39" class="th"></rect><text x="13" y="25" class="tht">Departments</text><rect height="60" width="149.39" class="t-bg"></rect><text x="13" y="61" class="tf pk">dept_no<tspan x="136.39" class="ty">varchar</tspan></text><path d="M7,14A2,2 0 0,1 5,12A2,2 0 0,1 7,10A2,2 0 0,1 9,12A2,2 0 0,1 7,14M12.65,10C11.83,7.67 9.61,6 7, 6A6, 6 0 0, 0 1, 12A6, 6 0 0, 0 7, 18C9.61, 18 11.83, 16.33 12.65, 14H17V18H21V14H23V10H12.65Z" class="i pk" transform="translate(76.37632812499999, 48) scale(0.65)"></path><text x="13" y="86" class="tf">dept_name<tspan x="136.39" class="ty">varchar</tspan></text></svg><svg width="141.38" height="200" x="-549.41" y="685.47" id="h3299212598" class="t"><rect height="40" width="141.38" class="th"></rect><text x="13" y="25" class="tht">Employees</text><rect height="160" width="141.38" class="t-bg"></rect><text x="13" y="61" class="tf pk">emp_no<tspan x="128.38" class="ty">int</tspan></text><path d="M7,14A2,2 0 0,1 5,12A2,2 0 0,1 7,10A2,2 0 0,1 9,12A2,2 0 0,1 7,14M12.65,10C11.83,7.67 9.61,6 7, 6A6, 6 0 0, 0 1, 12A6, 6 0 0, 0 7, 18C9.61, 18 11.83, 16.33 12.65, 14H17V18H21V14H23V10H12.65Z" class="i pk" transform="translate(95.706171875, 48) scale(0.65)"></path><text x="13" y="86" class="tf">birth_date<tspan x="128.38" class="ty">date</tspan></text><text x="13" y="111" class="tf">first_name<tspan x="128.38" class="ty">vachar</tspan></text><text x="13" y="136" class="tf">last_name<tspan x="128.38" class="ty">varchar</tspan></text><text x="13" y="161" class="tf">gender<tspan x="128.38" class="ty">varchar</tspan></text><text x="13" y="186" class="tf">hire_date<tspan x="128.38" class="ty">date</tspan></text></svg><svg width="123.38" height="150" x="-552" y="905" id="h3858243705" class="t"><rect height="40" width="123.38" class="th"></rect><text x="13" y="25" class="tht">Salaries</text><rect height="110" width="123.38" class="t-bg"></rect><text x="13" y="61" class="tf pk">emp_no<tspan x="110.38" class="ty">int</tspan></text><path d="M7,14A2,2 0 0,1 5,12A2,2 0 0,1 7,10A2,2 0 0,1 9,12A2,2 0 0,1 7,14M12.65,10C11.83,7.67 9.61,6 7, 6A6, 6 0 0, 0 1, 12A6, 6 0 0, 0 7, 18C9.61, 18 11.83, 16.33 12.65, 14H17V18H21V14H23V10H12.65Z" class="i pk" transform="translate(77.706171875, 48) scale(0.65)"></path><text x="13" y="86" class="tf">salary<tspan x="110.38" class="ty">int</tspan></text><text x="13" y="111" class="tf">from_date<tspan x="110.38" class="ty">date</tspan></text><text x="13" y="136" class="tf">to_date<tspan x="110.38" class="ty">date</tspan></text></svg><svg width="123.38" height="150" x="-311.39" y="919.72" id="h3517680912" class="t"><rect height="40" width="123.38" class="th"></rect><text x="13" y="25" class="tht">Titles</text><rect height="110" width="123.38" class="t-bg"></rect><text x="13" y="61" class="tf pk">emp_no<tspan x="110.38" class="ty">int</tspan></text><path d="M7,14A2,2 0 0,1 5,12A2,2 0 0,1 7,10A2,2 0 0,1 9,12A2,2 0 0,1 7,14M12.65,10C11.83,7.67 9.61,6 7, 6A6, 6 0 0, 0 1, 12A6, 6 0 0, 0 7, 18C9.61, 18 11.83, 16.33 12.65, 14H17V18H21V14H23V10H12.65Z" class="i pk" transform="translate(77.706171875, 48) scale(0.65)"></path><text x="13" y="86" class="tf">title<tspan x="110.38" class="ty">varchar</tspan></text><text x="13" y="111" class="tf">from_date<tspan x="110.38" class="ty">date</tspan></text><text x="13" y="136" class="tf">to_date<tspan x="110.38" class="ty">date</tspan></text></svg><svg width="149.39" height="150" x="-245.42" y="584.95" id="h526843498" class="t"><rect height="40" width="149.39" class="th"></rect><text x="13" y="25" class="tht">Managers</text><rect height="110" width="149.39" class="t-bg"></rect><text x="13" y="61" class="tf pk">dept_no<tspan x="136.39" class="ty">varchar</tspan></text><path d="M7,14A2,2 0 0,1 5,12A2,2 0 0,1 7,10A2,2 0 0,1 9,12A2,2 0 0,1 7,14M12.65,10C11.83,7.67 9.61,6 7, 6A6, 6 0 0, 0 1, 12A6, 6 0 0, 0 7, 18C9.61, 18 11.83, 16.33 12.65, 14H17V18H21V14H23V10H12.65Z" class="i pk" transform="translate(76.37632812499999, 48) scale(0.65)"></path><text x="13" y="86" class="tf pk">emp_no<tspan x="136.39" class="ty">int</tspan></text><path d="M7,14A2,2 0 0,1 5,12A2,2 0 0,1 7,10A2,2 0 0,1 9,12A2,2 0 0,1 7,14M12.65,10C11.83,7.67 9.61,6 7, 6A6, 6 0 0, 0 1, 12A6, 6 0 0, 0 7, 18C9.61, 18 11.83, 16.33 12.65, 14H17V18H21V14H23V10H12.65Z" class="i pk" transform="translate(103.71617187499999, 73) scale(0.65)"></path><text x="13" y="111" class="tf">from_date<tspan x="136.39" class="ty">date</tspan></text><text x="13" y="136" class="tf">to_date<tspan x="136.39" class="ty">date</tspan></text></svg><svg width="149.39" height="150" x="-309.45" y="755.56" id="h4086156755" class="t"><rect height="40" width="149.39" class="th"></rect><text x="13" y="25" class="tht">Dept_emp</text><rect height="110" width="149.39" class="t-bg"></rect><text x="13" y="61" class="tf pk">dept_no<tspan x="136.39" class="ty">varchar</tspan></text><path d="M7,14A2,2 0 0,1 5,12A2,2 0 0,1 7,10A2,2 0 0,1 9,12A2,2 0 0,1 7,14M12.65,10C11.83,7.67 9.61,6 7, 6A6, 6 0 0, 0 1, 12A6, 6 0 0, 0 7, 18C9.61, 18 11.83, 16.33 12.65, 14H17V18H21V14H23V10H12.65Z" class="i pk" transform="translate(76.37632812499999, 48) scale(0.65)"></path><text x="13" y="86" class="tf pk">emp_no<tspan x="136.39" class="ty">int</tspan></text><path d="M7,14A2,2 0 0,1 5,12A2,2 0 0,1 7,10A2,2 0 0,1 9,12A2,2 0 0,1 7,14M12.65,10C11.83,7.67 9.61,6 7, 6A6, 6 0 0, 0 1, 12A6, 6 0 0, 0 7, 18C9.61, 18 11.83, 16.33 12.65, 14H17V18H21V14H23V10H12.65Z" class="i pk" transform="translate(103.71617187499999, 73) scale(0.65)"></path><text x="13" y="111" class="tf">from_date<tspan x="136.39" class="ty">date</tspan></text><text x="13" y="136" class="tf">to_date<tspan x="136.39" class="ty">date</tspan></text></svg></g></g><text class="qdbd-link" x="10" y="20">www.quickdatabasediagrams.com</text></svg>